<svg xmlns="http://www.w3.org/2000/svg" version="1.1" xmlns:xlink="http://www.w3.org/1999/xlink" xmlns:svgjs="http://svgjs.dev/svgjs" width="2000" height="409" viewBox="0 0 2000 409"><g transform="matrix(1,0,0,1,-1.2121212121212466,0.5900171689181946)"><svg viewBox="0 0 396 81" data-background-color="#152232" preserveAspectRatio="xMidYMid meet" height="409" width="2000" xmlns="http://www.w3.org/2000/svg" xmlns:xlink="http://www.w3.org/1999/xlink"><g id="tight-bounds" transform="matrix(1,0,0,1,0.2400000000000091,-0.11684936597157503)"><svg viewBox="0 0 395.52 81.23369873194312" height="81.23369873194312" width="395.52"><g><svg viewBox="0 0 455.55901008866425 93.56478403156551" height="81.23369873194312" width="395.52"><g transform="matrix(1,0,0,1,0,12.931167691772082)"><svg viewBox="0 0 395.52 67.70244864802135" height="67.70244864802135" width="395.52"><g id="textblocktransform"><svg viewBox="0 0 395.52 67.70244864802135" height="67.70244864802135" width="395.52" id="textblock"><g><svg viewBox="0 0 395.52 67.70244864802135" height="67.70244864802135" width="395.52"><g transform="matrix(1,0,0,1,0,0)"><svg width="395.52" viewBox="3.49 -36.01 210.35999999999999 36.01" height="67.70244864802135" data-palette-color="#ffffff"><g class="wordmark-text-0" data-fill-palette-color="primary" id="text-0"><path d="M3.49-4.81L19.7-4.81 19.7-10.84 8.3-10.84Q7.3-10.84 6.42-11.22 5.54-11.6 4.9-12.24 4.25-12.89 3.87-13.77 3.49-14.65 3.49-15.65L3.49-15.65 3.49-21.19Q3.49-22.19 3.87-23.07 4.25-23.95 4.9-24.6 5.54-25.24 6.42-25.62 7.3-26 8.3-26L8.3-26 23.51-26 23.51-21.19 8.3-21.19 8.3-15.65 19.7-15.65Q20.7-15.65 21.57-15.27 22.44-14.89 23.1-14.25 23.75-13.6 24.13-12.72 24.51-11.84 24.51-10.84L24.51-10.84 24.51-4.81Q24.51-3.81 24.13-2.93 23.75-2.05 23.1-1.4 22.44-0.76 21.57-0.38 20.7 0 19.7 0L19.7 0 3.49 0 3.49-4.81ZM63.6-21.19L52.61-21.19 52.61 0 47.8 0 47.8-21.19 36.79-21.19 36.79 0 32 0 32-26 36.79-26 36.79-21.41Q36.84-22.36 37.23-23.21 37.62-24.05 38.27-24.67 38.91-25.29 39.77-25.65 40.62-26 41.6-26L41.6-26 47.8-26Q48.75-26 49.61-25.65 50.46-25.29 51.12-24.67 51.78-24.05 52.18-23.21 52.59-22.36 52.61-21.41L52.61-21.41Q52.66-22.36 53.04-23.21 53.42-24.05 54.06-24.67 54.71-25.29 55.56-25.65 56.42-26 57.39-26L57.39-26 63.6-26Q64.6-26 65.48-25.62 66.35-25.24 67-24.6 67.65-23.95 68.03-23.07 68.41-22.19 68.41-21.19L68.41-21.19 68.41 0 63.6 0 63.6-21.19ZM98.9-21.19L98.9-4.81Q98.9-3.81 98.52-2.93 98.14-2.05 97.49-1.4 96.85-0.76 95.98-0.38 95.11 0 94.11 0L94.11 0 81.2 0Q80.22 0 79.34-0.38 78.46-0.76 77.81-1.4 77.17-2.05 76.79-2.93 76.41-3.81 76.41-4.81L76.41-4.81 76.41-21.19Q76.41-22.19 76.79-23.07 77.17-23.95 77.81-24.6 78.46-25.24 79.34-25.62 80.22-26 81.2-26L81.2-26 94.11-26Q95.11-26 95.98-25.62 96.85-25.24 97.49-24.6 98.14-23.95 98.52-23.07 98.9-22.19 98.9-21.19L98.9-21.19ZM94.11-21.19L81.2-21.19 81.2-4.81 94.11-4.81 94.11-21.19ZM124.09-21.19L111.69-21.19 111.69-4.81 124.09-4.81 124.09-9.2 128.9-9.2 128.9-4.81Q128.9-3.81 128.52-2.93 128.14-2.05 127.49-1.4 126.85-0.76 125.97-0.38 125.09 0 124.09 0L124.09 0 111.69 0Q110.71 0 109.83-0.38 108.95-0.76 108.31-1.4 107.66-2.05 107.28-2.93 106.9-3.81 106.9-4.81L106.9-4.81 106.9-21.19Q106.9-22.19 107.28-23.07 107.66-23.95 108.31-24.6 108.95-25.24 109.83-25.62 110.71-26 111.69-26L111.69-26 124.09-26Q125.09-26 125.97-25.62 126.85-25.24 127.49-24.6 128.14-23.95 128.52-23.07 128.9-22.19 128.9-21.19L128.9-21.19 128.9-16.8 124.09-16.8 124.09-21.19ZM160.85 0L154.09 0 141.69-11.11 141.69 0 136.9 0 136.9-36.01 141.69-36.01 141.69-15.75 153.09-26 159.85-26 145.89-13.45 160.85 0ZM186.34-21.19L186.34-10.55 169.13-10.55 169.13-4.81 186.34-4.81 186.34 0 169.13 0Q168.15 0 167.27-0.38 166.39-0.76 165.75-1.4 165.1-2.05 164.72-2.93 164.34-3.81 164.34-4.81L164.34-4.81 164.34-21.19Q164.34-22.19 164.72-23.07 165.1-23.95 165.75-24.6 166.39-25.24 167.27-25.62 168.15-26 169.13-26L169.13-26 181.53-26Q182.53-26 183.41-25.62 184.29-25.24 184.94-24.6 185.58-23.95 185.96-23.07 186.34-22.19 186.34-21.19L186.34-21.19ZM181.53-21.19L169.13-21.19 169.13-15.36 181.53-15.36 181.53-21.19ZM209.04-21.19L199.13-21.19 199.13 0 194.35 0 194.35-26 199.13-26 199.13-21.41Q199.18-22.36 199.57-23.21 199.96-24.05 200.61-24.67 201.25-25.29 202.11-25.65 202.96-26 203.94-26L203.94-26 209.04-26Q210.04-26 210.91-25.62 211.78-25.24 212.44-24.6 213.1-23.95 213.47-23.07 213.85-22.19 213.85-21.19L213.85-21.19 213.85-16.8 209.04-16.8 209.04-21.19Z" fill="#ffffff" data-fill-palette-color="primary"></path></g></svg></g></svg></g></svg></g></svg></g><g transform="matrix(1,0,0,1,411.50292326703027,0)"><svg viewBox="0 0 44.056086821634004 93.56478403156551" height="93.56478403156551" width="44.056086821634004"><g><svg xmlns="http://www.w3.org/2000/svg" xmlns:xlink="http://www.w3.org/1999/xlink" version="1.1" x="0" y="0" viewBox="28.8554298096053 5 42.33047985157229 89.9" enable-background="new 0 0 100 100" xml:space="preserve" height="93.56478403156551" width="44.056086821634004" class="icon-icon-0" data-fill-palette-color="accent" id="icon-0"><path d="M30 36.4c-4.4 6.5 4.4 21 17.6 15.6 13.2-5.5 13.4 5.9 9.8 10.4-6.4 8.1-4.5 17.3-4.5 17.3s2.5-9.1 12.5-18c13.7-12.3 0.8-31-15.1-23.4-12.4 5.9-13.3 2-13.4-1.1s5-10.4 5-10.4S34.3 29.9 30 36.4z" fill="#ff4136" data-fill-palette-color="accent"></path><path d="M39.3 14.8c4.7 4.3 9.8 0.8 11.8 2.9C56 22.4 44.5 34 44.5 34s17.3-5.6 15.2-17.2c-1.3-7.1-7.6-8.1-14.1-6.4-8.7 2.3-8-5.4-8-5.4S34.4 10.2 39.3 14.8z" fill="#ff4136" data-fill-palette-color="accent"></path><path d="M48.1 79.9c-7.3-8.6 1.4-20.6 1.4-20.6s-13 3.5-13.7 11.6c-0.7 8.1 3.5 8.8 6.6 13.2 3.1 4.5 1 10.8 1 10.8S53.9 86.8 48.1 79.9z" fill="#ff4136" data-fill-palette-color="accent"></path></svg></g></svg></g></svg></g><defs></defs></svg><rect width="395.52" height="81.23369873194312" fill="none" stroke="none" visibility="hidden"></rect></g></svg></g></svg>