<svg xmlns="http://www.w3.org/2000/svg" version="1.1" xmlns:xlink="http://www.w3.org/1999/xlink" xmlns:svgjs="http://svgjs.dev/svgjs" width="2000" height="393" viewBox="0 0 2000 393"><g transform="matrix(1,0,0,1,-1.2121212121212466,0.4654429964573126)"><svg viewBox="0 0 396 78" data-background-color="#ffffff" preserveAspectRatio="xMidYMid meet" height="393" width="2000" xmlns="http://www.w3.org/2000/svg" xmlns:xlink="http://www.w3.org/1999/xlink"><g id="tight-bounds" transform="matrix(1,0,0,1,0.2400000000000091,-0.09237799929687185)"><svg viewBox="0 0 395.52 78.18475599859376" height="78.18475599859376" width="395.52"><g><svg viewBox="0 0 618.4187818766821 122.24646431527096" height="78.18475599859376" width="395.52"><g transform="matrix(1,0,0,1,0,16.895133635467985)"><svg viewBox="0 0 395.52000000000004 88.45619704433498" height="88.45619704433498" width="395.52000000000004"><g id="textblocktransform"><svg viewBox="0 0 395.52000000000004 88.45619704433498" height="88.45619704433498" width="395.52000000000004" id="textblock"><g><svg viewBox="0 0 395.52000000000004 88.45619704433498" height="88.45619704433498" width="395.52000000000004"><g transform="matrix(1,0,0,1,0,0)"><svg width="395.52000000000004" viewBox="1.6 -34.05 152.24 34.05" height="88.45619704433498" data-palette-color="#eeeeee"><path d="M19.7-25.7L19.7-20.5 9.75-20.5Q9.1-20.5 8.68-20.28 8.25-20.05 7.95-19.65 7.65-19.25 7.5-18.78 7.35-18.3 7.35-17.85L7.35-17.85Q7.35-16.9 7.98-16.13 8.6-15.35 9.5-15.35L9.5-15.35 15.1-15.35Q16.85-15.35 18.18-14.75 19.5-14.15 20.38-13.1 21.25-12.05 21.68-10.6 22.1-9.15 22.1-7.5L22.1-7.5 22.1-7.35Q22.1-5.7 21.58-4.35 21.05-3 20.1-2.05 19.15-1.1 17.85-0.55 16.55 0 15.1 0L15.1 0 3 0 3-4.95 13.4-4.95Q14.55-4.95 15.53-5.6 16.5-6.25 16.55-7.55L16.55-7.55 16.55-7.5Q16.55-8.25 16.28-8.75 16-9.25 15.55-9.58 15.1-9.9 14.55-10.05 14-10.2 13.4-10.2L13.4-10.2 8.9-10.2Q6.7-10.2 5.28-10.9 3.85-11.6 3.03-12.7 2.2-13.8 1.9-15.2 1.6-16.6 1.6-18.05L1.6-18.05Q1.6-19.55 2.05-20.95 2.5-22.35 3.38-23.43 4.25-24.5 5.55-25.1 6.85-25.7 8.5-25.7L8.5-25.7 19.7-25.7ZM52.7-19.75L51.45-19.75Q50.15-19.75 49.35-19.43 48.55-19.1 48.12-18.55 47.7-18 47.55-17.25 47.4-16.5 47.4-15.6L47.4-15.6 47.4 0 41.55 0 41.55-15.55Q41.55-16.45 41.4-17.23 41.25-18 40.82-18.55 40.4-19.1 39.6-19.43 38.8-19.75 37.45-19.75L37.45-19.75 36.25-19.75Q34.95-19.75 34.12-19.43 33.3-19.1 32.85-18.55 32.4-18 32.22-17.23 32.05-16.45 32.05-15.55L32.05-15.55 32.05 0 26.2 0 26.2-25.45 32.05-25.45 32.05-24.7Q34-25.45 36.2-25.45L36.2-25.45 38.4-25.45Q40.4-25.45 41.95-24.85 43.5-24.25 44.6-23.2L44.6-23.2Q45.8-24.25 47.4-24.85 49-25.45 51-25.45L51-25.45 53.6-25.45Q55.8-25.45 57.5-24.7 59.2-23.95 60.32-22.73 61.45-21.5 62.02-19.93 62.6-18.35 62.6-16.75L62.6-16.75 62.6 0 56.8 0 56.8-15.55Q56.8-16.45 56.65-17.23 56.5-18 56.05-18.55 55.6-19.1 54.8-19.43 54-19.75 52.7-19.75L52.7-19.75ZM75.34-25.45L77.4-25.45Q79.59-25.45 81.32-24.78 83.05-24.1 84.27-22.9 85.5-21.7 86.15-20 86.8-18.3 86.8-16.15L86.8-16.15 86.8-9.3Q86.8-7.2 86.15-5.48 85.5-3.75 84.27-2.53 83.05-1.3 81.32-0.65 79.59 0 77.4 0L77.4 0 75.34 0Q73.2 0 71.45-0.65 69.7-1.3 68.47-2.53 67.25-3.75 66.62-5.48 66-7.2 66-9.3L66-9.3 66-16.15Q66-18.3 66.62-20 67.25-21.7 68.47-22.9 69.7-24.1 71.45-24.78 73.2-25.45 75.34-25.45L75.34-25.45ZM77.4-19.7L75.34-19.7Q73.8-19.7 72.72-18.68 71.64-17.65 71.64-16L71.64-16 71.64-9.5Q71.64-7.85 72.72-6.8 73.8-5.75 75.34-5.75L75.34-5.75 77.4-5.75Q79-5.75 80.02-6.8 81.05-7.85 81.05-9.5L81.05-9.5 81.05-16Q81.05-17.65 80.02-18.68 79-19.7 77.4-19.7L77.4-19.7ZM98.89-5.75L100.94-5.75Q102.14-5.75 102.99-6.33 103.84-6.9 104.09-7.9L104.09-7.9 110.04-7.9Q109.59-4.3 107.24-2.15 104.89 0 100.94 0L100.94 0 98.89 0Q96.74 0 94.99-0.65 93.24-1.3 92.04-2.53 90.84-3.75 90.17-5.48 89.49-7.2 89.49-9.3L89.49-9.3 89.49-16.15Q89.49-18.3 90.17-20 90.84-21.7 92.04-22.9 93.24-24.1 94.99-24.78 96.74-25.45 98.89-25.45L98.89-25.45 100.94-25.45Q104.99-25.45 107.34-23.3 109.69-21.15 110.04-17.4L110.04-17.4 104.14-17.4Q103.84-18.5 103.04-19.1 102.24-19.7 100.94-19.7L100.94-19.7 98.89-19.7Q97.29-19.7 96.27-18.68 95.24-17.65 95.24-16L95.24-16 95.24-9.5Q95.24-7.85 96.27-6.8 97.29-5.75 98.89-5.75L98.89-5.75ZM121.69-13.7L134.09 0 127.49 0 118.89-9.7 118.89 0 112.99 0 112.99-34.05 118.89-34.05 118.89-17.4 126.99-25.45 133.94-25.45 121.69-13.7ZM142.49-25.65L142.49-20.25Q143.19-21.4 144.36-22.28 145.54-23.15 146.96-23.75 148.39-24.35 149.99-24.65 151.59-24.95 153.19-24.95L153.19-24.95 153.84-24.95 153.84-18.75 153.19-18.75Q151.39-18.75 149.49-18.03 147.59-17.3 146.01-16.13 144.44-14.95 143.46-13.5 142.49-12.05 142.49-10.6L142.49-10.6 142.49 0 136.29 0 136.29-25.65 142.49-25.65Z" opacity="1" transform="matrix(1,0,0,1,0,0)" fill="#eeeeee" class="wordmark-text-0" data-fill-palette-color="primary" id="text-0"></path></svg></g></svg></g></svg></g></svg></g><g transform="matrix(1,0,0,1,416.40238517343846,0)"><svg viewBox="0 0 202.01639670324366 122.24646431527096" height="122.24646431527096" width="202.01639670324366"><g><svg xmlns="http://www.w3.org/2000/svg" xml:space="preserve" viewBox="13.052 29.694 73.8980000638526 44.71799999999999" x="0" y="0" height="122.24646431527096" width="202.01639670324366" class="icon-icon-0" data-fill-palette-color="accent" id="icon-0"><path d="M84.949 50.052H72.266a22.2 22.2 0 0 0-1.494-6.26h2.964a2 2 0 0 0 0-4h-5.051C64.684 33.715 57.804 29.694 50 29.694s-14.682 4.021-18.683 10.098H15.052a2 2 0 0 0 0 4H29.23a22.2 22.2 0 0 0-1.494 6.26h-3.962a2 2 0 0 0 0 4h3.962a22.2 22.2 0 0 0 1.494 6.26H15.951a2 2 0 0 0 0 4h15.365c4 6.077 10.879 10.1 18.684 10.1 11.655 0 21.25-8.964 22.266-20.359H84.95a2 2 0 0 0-0.001-4.001M50 33.694c5.409 0 10.263 2.365 13.626 6.098H36.375c3.362-3.733 8.216-6.098 13.625-6.098M33.627 43.792h32.746a18.2 18.2 0 0 1 1.872 6.26H31.756a18.2 18.2 0 0 1 1.871-6.26M50 70.411c-5.409 0-10.263-2.365-13.626-6.1h14.761a2 2 0 0 0 0-4H33.627a18.2 18.2 0 0 1-1.871-6.26h36.489c-1.001 9.185-8.799 16.36-18.245 16.36" fill="#ffdd59" data-fill-palette-color="accent"></path></svg></g></svg></g></svg></g><defs></defs></svg><rect width="395.52" height="78.18475599859376" fill="none" stroke="none" visibility="hidden"></rect></g></svg></g></svg>